<svg width="26" height="26" viewBox="0 0 26 26" fill="none" xmlns="http://www.w3.org/2000/svg">
<g clip-path="url(#clip0_3_219)">
<path d="M3.70174 4.11918L3.56625 3.83332H3.24992H1.58325V2.66666H4.3043L5.19786 4.54785L5.33346 4.83332H5.6495H21.6666C21.9879 4.83332 22.2499 5.09317 22.2499 5.41666C22.2499 5.52052 22.2232 5.61358 22.1804 5.68859L22.1803 5.68856L22.1765 5.69541L18.3055 12.7229C18.3052 12.7234 18.3049 12.724 18.3046 12.7246C18.0148 13.2398 17.4681 13.5833 16.8458 13.5833H8.77492H8.47904L8.33664 13.8427L7.36853 15.6058C7.30078 15.7264 7.27283 15.8554 7.27283 15.9792C7.27283 16.407 7.61586 16.75 8.04367 16.75H20.0833V17.9167H7.58325C6.66231 17.9167 5.91658 17.1709 5.91658 16.25C5.91658 15.9599 5.99042 15.6892 6.12154 15.4429L7.58242 12.7917L7.70594 12.5675L7.59632 12.3363L3.70174 4.11918ZM5.92742 21.6667C5.92742 20.7424 6.66557 20 7.58325 20C8.50419 20 9.24992 20.7457 9.24992 21.6667C9.24992 22.5876 8.50419 23.3333 7.58325 23.3333C6.66557 23.3333 5.92742 22.5909 5.92742 21.6667ZM16.7608 21.6667C16.7608 20.7424 17.4989 20 18.4166 20C19.3375 20 20.0833 20.7457 20.0833 21.6667C20.0833 22.5876 19.3375 23.3333 18.4166 23.3333C17.4989 23.3333 16.7608 22.5909 16.7608 21.6667Z" fill="#69306D" stroke="#69306D"/>
</g>
<defs>
<clipPath id="clip0_3_219">
<rect width="26" height="26" fill="white"/>
</clipPath>
</defs>
</svg>
