<svg width="106" height="17" viewBox="0 0 106 17" fill="none" xmlns="http://www.w3.org/2000/svg">
<path d="M13.8457 16H10.5264V9.22168H4.30664V16H0.976562V0.294922H4.30664V6.4502H10.5264V0.294922H13.8457V16ZM33.3952 8.12598C33.3952 9.33626 33.2448 10.4391 32.944 11.4346C32.6432 12.4229 32.1849 13.2751 31.569 13.9912C30.9603 14.7074 30.1869 15.2588 29.2487 15.6455C28.3106 16.0251 27.2005 16.2148 25.9186 16.2148C24.6367 16.2148 23.5267 16.0251 22.5886 15.6455C21.6504 15.2588 20.8734 14.7074 20.2575 13.9912C19.6488 13.2751 19.194 12.4193 18.8932 11.4238C18.5925 10.4284 18.4421 9.32194 18.4421 8.10449C18.4421 6.47884 18.707 5.06445 19.237 3.86133C19.7741 2.65104 20.5977 1.71289 21.7077 1.04688C22.8177 0.380859 24.2285 0.0478516 25.9401 0.0478516C27.6445 0.0478516 29.0446 0.380859 30.1403 1.04688C31.2432 1.71289 32.0596 2.65104 32.5895 3.86133C33.1266 5.07161 33.3952 6.49316 33.3952 8.12598ZM21.9333 8.12598C21.9333 9.22168 22.0693 10.167 22.3415 10.9619C22.6208 11.7497 23.054 12.3584 23.6413 12.7881C24.2285 13.2106 24.9876 13.4219 25.9186 13.4219C26.8639 13.4219 27.6302 13.2106 28.2175 12.7881C28.8047 12.3584 29.2308 11.7497 29.4958 10.9619C29.7679 10.167 29.904 9.22168 29.904 8.12598C29.904 6.47884 29.596 5.18262 28.9802 4.2373C28.3643 3.29199 27.3509 2.81934 25.9401 2.81934C25.002 2.81934 24.2357 3.03418 23.6413 3.46387C23.054 3.88639 22.6208 4.49512 22.3415 5.29004C22.0693 6.0778 21.9333 7.02311 21.9333 8.12598ZM44.6195 16L40.8382 3.67871H40.7416C40.7559 3.97233 40.7774 4.41634 40.806 5.01074C40.8418 5.59798 40.874 6.22461 40.9027 6.89062C40.9313 7.55664 40.9457 8.1582 40.9457 8.69531V16H37.9701V0.294922H42.5033L46.2201 12.3047H46.2845L50.2269 0.294922H54.7601V16H51.6556V8.56641C51.6556 8.07227 51.6628 7.50293 51.6771 6.8584C51.6986 6.21387 51.7237 5.60156 51.7523 5.02148C51.7809 4.43424 51.8024 3.99382 51.8168 3.7002H51.7201L47.6703 16H44.6195ZM69.0889 16H60.044V0.294922H69.0889V3.02344H63.3741V6.47168H68.6914V9.2002H63.3741V13.25H69.0889V16ZM73.696 16V0.294922H77.0261V13.25H83.3962V16H73.696ZM92.3432 6.76172L95.6195 0.294922H99.2074L93.9975 9.8877V16H90.6889V9.99512L85.4789 0.294922H89.0883L92.3432 6.76172ZM101.784 14.4639C101.784 13.7907 101.967 13.318 102.332 13.0459C102.705 12.7738 103.152 12.6377 103.675 12.6377C104.183 12.6377 104.62 12.7738 104.985 13.0459C105.358 13.318 105.544 13.7907 105.544 14.4639C105.544 15.1084 105.358 15.5739 104.985 15.8604C104.62 16.1468 104.183 16.29 103.675 16.29C103.152 16.29 102.705 16.1468 102.332 15.8604C101.967 15.5739 101.784 15.1084 101.784 14.4639Z" fill="#69306D"/>
</svg>
