<svg width="25" height="26" viewBox="0 0 25 26" fill="none" xmlns="http://www.w3.org/2000/svg">
<path d="M12.4999 13C14.8011 13 16.6666 11.1345 16.6666 8.83332C16.6666 6.53214 14.8011 4.66666 12.4999 4.66666C10.1987 4.66666 8.33325 6.53214 8.33325 8.83332C8.33325 11.1345 10.1987 13 12.4999 13Z" fill="#69306D"/>
<path d="M20.8334 20.2917V21.3333C20.8334 21.6096 20.7237 21.8745 20.5283 22.0699C20.333 22.2652 20.068 22.375 19.7917 22.375H5.20841C4.93215 22.375 4.6672 22.2652 4.47185 22.0699C4.27649 21.8745 4.16675 21.6096 4.16675 21.3333V20.2917C4.16675 18.6341 4.82523 17.0443 5.99733 15.8722C7.16943 14.7001 8.75914 14.0417 10.4167 14.0417H14.5834C16.241 14.0417 17.8307 14.7001 19.0028 15.8722C20.1749 17.0443 20.8334 18.6341 20.8334 20.2917Z" fill="#69306D"/>
</svg>
